HIERARCHY
ROOT Hips
{
 OFFSET 0.000000 0.000000 0.000000
 CHANNELS 6 Xposition Yposition Zposition Yrotation Xrotation Zrotation
 JOINT Chest
 {
  OFFSET 0.000000 9.585900 0.002600
  CHANNELS 3 Yrotation Xrotation Zrotation
  JOINT Chest2
  {
   OFFSET 0.000000 9.601200 -0.005300
   CHANNELS 3 Yrotation Xrotation Zrotation
   JOINT Chest3
   {
    OFFSET 0.000000 9.561800 0.000000
    CHANNELS 3 Yrotation Xrotation Zrotation
    JOINT Chest4
    {
     OFFSET 0.000000 9.552100 0.000000
     CHANNELS 3 Yrotation Xrotation Zrotation
     JOINT Neck
     {
      OFFSET 0.000000 14.453000 0.000000
      CHANNELS 3 Yrotation Xrotation Zrotation
      JOINT Head
      {
       OFFSET 0.000000 8.936500 -0.011300
       CHANNELS 3 Yrotation Xrotation Zrotation
       End Site
       {
        OFFSET 0.000000 17.073600 -0.006000
       }
      }
     }
     JOINT RightCollar
     {
      OFFSET -2.921100 9.558500 0.000000
      CHANNELS 3 Yrotation Xrotation Zrotation
      JOINT RightShoulder
      {
       OFFSET -13.519700 0.000000 0.000000
       CHANNELS 3 Yrotation Xrotation Zrotation
       JOINT RightElbow
       {
        OFFSET 0.000000 -29.696600 0.000000
        CHANNELS 3 Yrotation Xrotation Zrotation
        JOINT RightWrist
        {
         OFFSET 0.000000 -24.004700 0.000000
         CHANNELS 3 Yrotation Xrotation Zrotation
         End Site
         {
          OFFSET 0.000000 -17.728500 0.000000
         }
        }
       }
      }
     }
     JOINT LeftCollar
     {
      OFFSET 2.921100 9.558500 0.000000
      CHANNELS 3 Yrotation Xrotation Zrotation
      JOINT LeftShoulder
      {
       OFFSET 13.519700 0.000000 0.000000
       CHANNELS 3 Yrotation Xrotation Zrotation
       JOINT LeftElbow
       {
        OFFSET 0.000000 -29.696600 0.000000
        CHANNELS 3 Yrotation Xrotation Zrotation
        JOINT LeftWrist
        {
         OFFSET 0.000000 -24.004700 0.000000
         CHANNELS 3 Yrotation Xrotation Zrotation
         End Site
         {
          OFFSET 0.000000 -17.728500 0.000000
         }
        }
       }
      }
     }
    }
   }
  }
 }
 JOINT RightHip
 {
  OFFSET -7.771700 -0.012900 -0.001300
  CHANNELS 3 Yrotation Xrotation Zrotation
  JOINT RightKnee
  {
   OFFSET 0.000000 -40.869800 0.001200
   CHANNELS 3 Yrotation Xrotation Zrotation
   JOINT RightAnkle
   {
    OFFSET 0.000000 -39.717900 0.002100
    CHANNELS 3 Yrotation Xrotation Zrotation
    JOINT RightToe
    {
     OFFSET 0.000000 -4.965400 11.033500
     CHANNELS 3 Yrotation Xrotation Zrotation
     End Site
     {
      OFFSET 0.000000 -1.423100 5.872300
     }
    }
   }
  }
 }
 JOINT LeftHip
 {
  OFFSET 7.771700 -0.012900 -0.001300
  CHANNELS 3 Yrotation Xrotation Zrotation
  JOINT LeftKnee
  {
   OFFSET 0.000000 -40.869800 0.001200
   CHANNELS 3 Yrotation Xrotation Zrotation
   JOINT LeftAnkle
   {
    OFFSET 0.000000 -39.717900 0.002100
    CHANNELS 3 Yrotation Xrotation Zrotation
    JOINT LeftToe
    {
     OFFSET 0.000000 -4.965400 11.033500
     CHANNELS 3 Yrotation Xrotation Zrotation
     End Site
     {
      OFFSET 0.000000 -1.423100 5.872300
     }
    }
   }
  }
 }
}
MOTION
Frames: 6
Frame Time: 0.008333
0.000000 85.388000 0.000000 0.000000 -5.767877 0.000000 0.000000 11.653817 0.000000 0.000000 -5.885947 0.000000 0.000000 -0.000000 0.000000 0.000000 -0.000000 0.000000 0.000000 12.528835 0.000000 0.000000 0.711642 0.000000 0.000000 -0.000000 0.000000 0.000000 0.000000 -90.000000 0.000000 -2.309062 0.000000 0.000000 2.309062 0.000000 0.000000 -0.000000 0.000000 0.000000 -0.000000 90.000000 0.000000 -2.309062 0.000000 0.000000 2.309062 0.000000 0.000000 8.520406 0.000000 0.000000 1.905762 0.000000 -0.000000 -4.658285 0.000000 0.000000 -0.000000 0.000000 0.000000 8.520406 0.000000 0.000000 1.905762 0.000000 -0.000000 -4.658285 0.000000 0.000000 -0.000000 0.000000
25.758012 49.940228 60.591231 172.220986 -31.730095 -6.549380 7.234617 23.046316 7.479104 0.910580 3.663599 0.789001 1.503718 5.846634 1.306463 5.702454 19.316043 5.107128 -2.881194 15.412819 0.938996 -5.720028 -7.072394 2.805165 -1.047186 -2.606229 -5.855033 9.737208 -11.483455 -3.867349 -121.334782 -52.567009 130.255658 -8.747587 -7.659762 56.207010 -11.603040 0.926737 0.629999 1.031618 -16.267137 1.571266 108.938294 -39.517197 -137.593343 35.767993 12.893392 -52.631739 -0.899783 -48.220142 10.575480 -133.246027 82.744378 -120.870776 -0.197348 -15.409489 -5.160473 -0.213734 0.935144 -0.091606 -7.552817 -52.798951 17.275830 -152.678021 80.293828 -160.421659 -0.097674 -17.629441 8.283048 -0.388089 -0.738728 -0.159792
25.759671 49.945102 60.586639 172.185996 -31.732304 -6.524561 7.222694 23.104116 7.422150 0.925874 3.662620 0.791812 1.511165 5.864899 1.300125 5.716490 19.344487 5.080760 -2.815294 15.480323 0.998232 -5.615580 -6.947210 2.888020 -1.024646 -2.499120 -5.722221 10.332052 -11.946497 -3.928360 -120.699794 -53.474012 128.624149 -8.420229 -7.686268 55.665863 -11.746923 1.044735 0.673451 0.886026 -16.315713 1.597769 108.842905 -39.983733 -136.915253 35.426671 13.111263 -52.913095 -0.899267 -48.214987 10.585493 -133.302171 82.753622 -120.931048 -0.218252 -15.405547 -5.183466 -0.195843 0.937196 -0.082616 -7.497861 -52.784364 17.270192 -152.772158 80.315312 -160.515864 -0.153533 -17.603420 8.271480 -0.381006 -0.744569 -0.141264
25.761081 49.950321 60.581859 172.162214 -31.731739 -6.500328 7.222341 23.137767 7.378242 0.930458 3.674515 0.788595 1.518221 5.882947 1.294994 5.729667 19.371992 5.058431 -2.760031 15.537512 1.052670 -5.529725 -6.840899 2.966301 -0.980579 -2.376904 -5.587717 10.863245 -12.377405 -4.034624 -120.124221 -54.391852 127.052675 -8.095734 -7.772367 54.967397 -11.908223 1.170388 0.716880 0.709274 -16.364959 1.613042 108.728942 -40.504545 -136.151505 35.068965 13.352275 -53.248869 -0.905350 -48.211862 10.592501 -133.324584 82.758245 -120.968314 -0.228158 -15.394690 -5.184102 -0.188514 0.928145 -0.089819 -7.433862 -52.771084 17.244121 -152.939836 80.345702 -160.676993 -0.211035 -17.579463 8.248621 -0.379129 -0.711368 -0.135546
25.764267 49.956591 60.575957 172.139190 -31.741255 -6.481288 7.241663 23.176029 7.353146 0.934945 3.685979 0.786519 1.525153 5.900315 1.291567 5.743274 19.397570 5.042136 -2.718164 15.582230 1.099700 -5.466633 -6.757358 3.036389 -0.919931 -2.239758 -5.464333 11.312607 -12.756336 -4.173772 -119.582564 -55.252306 125.566506 -7.752644 -7.890951 54.138555 -12.075089 1.301441 0.756560 0.495000 -16.426908 1.616013 108.581571 -41.071181 -135.292374 34.686333 13.594239 -53.573010 -0.914468 -48.200176 10.606965 -133.341962 82.760805 -120.999987 -0.239961 -15.370984 -5.169024 -0.180287 0.906748 -0.110822 -7.365120 -52.746146 17.213299 -153.083087 80.374382 -160.804863 -0.261290 -17.563891 8.222719 -0.378340 -0.697208 -0.120980
25.767974 49.963138 60.569170 172.104894 -31.760565 -6.452380 7.276601 23.215145 7.336228 0.944584 3.706593 0.786160 1.533335 5.918388 1.290455 5.761124 19.422481 5.033572 -2.692130 15.612741 1.138286 -5.430519 -6.699877 3.097288 -0.843215 -2.097535 -5.360531 11.722984 -13.061385 -4.324795 -119.135881 -56.020863 124.226352 -7.390565 -8.008558 53.199226 -12.240789 1.430569 0.787549 0.224191 -16.505850 1.610183 108.397903 -41.651768 -134.340220 34.271475 13.812792 -53.775608 -0.901737 -48.176226 10.604462 -133.404685 82.772539 -121.059709 -0.258206 -15.364573 -5.190090 -0.161154 0.906429 -0.104093 -7.279012 -52.711030 17.167216 -153.255197 80.402849 -160.956741 -0.305466 -17.551399 8.192458 -0.377317 -0.682983 -0.110263
